<svg width="21" height="20" viewBox="0 0 21 20" fill="none" xmlns="http://www.w3.org/2000/svg">
<path d="M7.47532 11.6667H3.58366C2.66699 11.6667 1.91699 12.4167 1.91699 13.3334V18.3334H7.47532V11.6667Z" stroke="#4F4F4F" stroke-width="1.5" stroke-miterlimit="10" stroke-linecap="round" stroke-linejoin="round"/>
<path d="M11.3585 8.33325H9.13346C8.2168 8.33325 7.4668 9.08325 7.4668 9.99992V18.3333H13.0251V9.99992C13.0251 9.08325 12.2835 8.33325 11.3585 8.33325Z" stroke="#4F4F4F" stroke-width="1.5" stroke-miterlimit="10" stroke-linecap="round" stroke-linejoin="round"/>
<path d="M16.9171 14.1667H13.0254V18.3334H18.5837V15.8334C18.5837 14.9167 17.8337 14.1667 16.9171 14.1667Z" stroke="#4F4F4F" stroke-width="1.5" stroke-miterlimit="10" stroke-linecap="round" stroke-linejoin="round"/>
<path d="M10.6835 1.7251L11.1252 2.60843C11.1835 2.73343 11.3419 2.85009 11.4752 2.86676L12.2752 3.0001C12.7835 3.08343 12.9085 3.45841 12.5419 3.81675L11.9169 4.44175C11.8085 4.55008 11.7502 4.75009 11.7835 4.89175L11.9585 5.65843C12.1002 6.26676 11.7752 6.5001 11.2419 6.18344L10.4919 5.74177C10.3585 5.65844 10.1335 5.65844 10.0002 5.74177L9.25019 6.18344C8.71686 6.5001 8.39186 6.26676 8.53352 5.65843L8.70853 4.89175C8.74186 4.75009 8.68353 4.54175 8.57519 4.44175L7.95852 3.82509C7.59186 3.45842 7.70852 3.09175 8.22519 3.00841L9.02519 2.8751C9.15852 2.8501 9.31686 2.73344 9.37519 2.61677L9.81686 1.73341C10.0585 1.25008 10.4419 1.2501 10.6835 1.7251Z" stroke="#4F4F4F" stroke-width="1.5" stroke-linecap="round" stroke-linejoin="round"/>
</svg>
