<svg width="21" height="20" viewBox="0 0 21 20" fill="none" xmlns="http://www.w3.org/2000/svg">

<defs>
<linearGradient id="paint0_linear_10626_2044" x1="1.91699" y1="14.9556" x2="6.64199" y2="14.9556" gradientUnits="userSpaceOnUse">
<stop stop-color="#9741FF"/>
<stop offset="0.489583" stop-color="#645EFD"/>
<stop offset="1" stop-color="#007DB3"/>
</linearGradient>
<linearGradient id="paint1_linear_10626_2044" x1="7.4668" y1="13.2666" x2="13.0251" y2="13.2666" gradientUnits="userSpaceOnUse">
<stop stop-color="#9741FF"/>
<stop offset="0.489583" stop-color="#645EFD"/>
<stop offset="1" stop-color="#007DB3"/>
</linearGradient>
<linearGradient id="paint2_linear_10626_2044" x1="13.8584" y1="16.2223" x2="18.5834" y2="16.2223" gradientUnits="userSpaceOnUse">
<stop stop-color="#9741FF"/>
<stop offset="0.489583" stop-color="#645EFD"/>
<stop offset="1" stop-color="#007DB3"/>
</linearGradient>
<linearGradient id="paint3_linear_10626_2044" x1="7.4375" y1="3.82283" x2="13.0616" y2="3.82283" gradientUnits="userSpaceOnUse">
<stop stop-color="#9741FF"/>
<stop offset="0.489583" stop-color="#645EFD"/>
<stop offset="1" stop-color="#007DB3"/>
</linearGradient>
</defs>
<path d="M5.80866 11.6667H3.58366C2.66699 11.6667 1.91699 12.4167 1.91699 13.3334V17.5001C1.91699 17.9584 2.29199 18.3334 2.75033 18.3334H5.80866C6.26699 18.3334 6.64199 17.9584 6.64199 17.5001V12.5001C6.64199 12.0417 6.26699 11.6667 5.80866 11.6667Z" fill="url(#paint0_linear_10626_2044)"/>
<path d="M11.3585 8.33325H9.13346C8.2168 8.33325 7.4668 9.08325 7.4668 9.99992V17.4999C7.4668 17.9583 7.8418 18.3333 8.30013 18.3333H12.1918C12.6501 18.3333 13.0251 17.9583 13.0251 17.4999V9.99992C13.0251 9.08325 12.2835 8.33325 11.3585 8.33325Z" fill="url(#paint1_linear_10626_2044)"/>
<path d="M16.9167 14.1667H14.6917C14.2334 14.1667 13.8584 14.5417 13.8584 15.0001V17.5001C13.8584 17.9584 14.2334 18.3334 14.6917 18.3334H17.7501C18.2084 18.3334 18.5834 17.9584 18.5834 17.5001V15.8334C18.5834 14.9167 17.8334 14.1667 16.9167 14.1667Z" fill="url(#paint2_linear_10626_2044)"/>
<path d="M12.7579 4.04173C13.0162 3.7834 13.1162 3.47507 13.0329 3.2084C12.9495 2.94173 12.6912 2.75007 12.3245 2.69173L11.5245 2.5584C11.4912 2.5584 11.4162 2.50007 11.3995 2.46673L10.9579 1.5834C10.6245 0.908398 9.86621 0.908398 9.53288 1.5834L9.09121 2.46673C9.08288 2.50007 9.00788 2.5584 8.97454 2.5584L8.17454 2.69173C7.80788 2.75007 7.55788 2.94173 7.46621 3.2084C7.38288 3.47507 7.48288 3.7834 7.74121 4.04173L8.35788 4.66673C8.39121 4.69173 8.41621 4.79173 8.40788 4.82507L8.23288 5.59173C8.09954 6.16673 8.31621 6.42507 8.45788 6.52507C8.59954 6.62507 8.90788 6.7584 9.41621 6.4584L10.1662 6.01673C10.1995 5.99173 10.3079 5.99173 10.3412 6.01673L11.0829 6.4584C11.3162 6.60007 11.5079 6.64173 11.6579 6.64173C11.8329 6.64173 11.9579 6.57507 12.0329 6.52507C12.1745 6.42507 12.3912 6.16673 12.2579 5.59173L12.0829 4.82507C12.0745 4.7834 12.0995 4.69173 12.1329 4.66673L12.7579 4.04173Z" fill="url(#paint3_linear_10626_2044)"/>
</svg>
