<svg width="60" height="60" viewBox="0 0 60 60" fill="none" xmlns="http://www.w3.org/2000/svg">
<defs>
<linearGradient id="paint0_linear_10612_48216" x1="32.5" y1="18.5666" x2="53.75" y2="18.5666" gradientUnits="userSpaceOnUse">
<stop stop-color="#9741FF"/>
<stop offset="0.489583" stop-color="#645EFD"/>
<stop offset="1" stop-color="#007DB3"/>
</linearGradient>
<linearGradient id="paint1_linear_10612_48216" x1="6.25" y1="41.0666" x2="27.5" y2="41.0666" gradientUnits="userSpaceOnUse">
<stop stop-color="#9741FF"/>
<stop offset="0.489583" stop-color="#645EFD"/>
<stop offset="1" stop-color="#007DB3"/>
</linearGradient>
<linearGradient id="paint2_linear_10612_48216" x1="32.5" y1="46.1333" x2="53.75" y2="46.1333" gradientUnits="userSpaceOnUse">
<stop stop-color="#9741FF"/>
<stop offset="0.489583" stop-color="#645EFD"/>
<stop offset="1" stop-color="#007DB3"/>
</linearGradient>
<linearGradient id="paint3_linear_10612_48216" x1="6.25" y1="13.6333" x2="27.5" y2="13.6333" gradientUnits="userSpaceOnUse">
<stop stop-color="#9741FF"/>
<stop offset="0.489583" stop-color="#645EFD"/>
<stop offset="1" stop-color="#007DB3"/>
</linearGradient>
<clipPath id="clip0_10612_48216">
<rect width="60" height="60" fill="white"/>
</clipPath>
</defs>
<g clip-path="url(#clip0_10612_48216)">
<path d="M53.75 27.25V10.25C53.75 6.5 52.15 5 48.175 5H38.075C34.1 5 32.5 6.5 32.5 10.25V27.25C32.5 31 34.1 32.5 38.075 32.5H48.175C52.15 32.5 53.75 31 53.75 27.25Z" fill="url(#paint0_linear_10612_48216)"/>
<path d="M27.5 32.75V49.75C27.5 53.5 25.9 55 21.925 55H11.825C7.85 55 6.25 53.5 6.25 49.75V32.75C6.25 29 7.85 27.5 11.825 27.5H21.925C25.9 27.5 27.5 29 27.5 32.75Z" fill="url(#paint1_linear_10612_48216)"/>
<path d="M53.75 49.75V42.75C53.75 39 52.15 37.5 48.175 37.5H38.075C34.1 37.5 32.5 39 32.5 42.75V49.75C32.5 53.5 34.1 55 38.075 55H48.175C52.15 55 53.75 53.5 53.75 49.75Z" fill="url(#paint2_linear_10612_48216)"/>
<path d="M27.5 17.25V10.25C27.5 6.5 25.9 5 21.925 5H11.825C7.85 5 6.25 6.5 6.25 10.25V17.25C6.25 21 7.85 22.5 11.825 22.5H21.925C25.9 22.5 27.5 21 27.5 17.25Z" fill="url(#paint3_linear_10612_48216)"/>
</g>

</svg>
