<svg width="20" height="20" viewBox="0 0 20 20" fill="none" xmlns="http://www.w3.org/2000/svg">
<path d="M18.3333 9.08341V3.41675C18.3333 2.16675 17.8 1.66675 16.475 1.66675H13.1083C11.7833 1.66675 11.25 2.16675 11.25 3.41675V9.08341C11.25 10.3334 11.7833 10.8334 13.1083 10.8334H16.475C17.8 10.8334 18.3333 10.3334 18.3333 9.08341Z" stroke="#4F4F4F" stroke-width="1.5" stroke-linecap="round" stroke-linejoin="round"/>
<path d="M18.3333 16.5833V15.0833C18.3333 13.8333 17.8 13.3333 16.475 13.3333H13.1083C11.7833 13.3333 11.25 13.8333 11.25 15.0833V16.5833C11.25 17.8333 11.7833 18.3333 13.1083 18.3333H16.475C17.8 18.3333 18.3333 17.8333 18.3333 16.5833Z" stroke="#4F4F4F" stroke-width="1.5" stroke-linecap="round" stroke-linejoin="round"/>
<path d="M8.75033 10.9167V16.5834C8.75033 17.8334 8.21699 18.3334 6.89199 18.3334H3.52533C2.20033 18.3334 1.66699 17.8334 1.66699 16.5834V10.9167C1.66699 9.66675 2.20033 9.16675 3.52533 9.16675H6.89199C8.21699 9.16675 8.75033 9.66675 8.75033 10.9167Z" stroke="#4F4F4F" stroke-width="1.5" stroke-linecap="round" stroke-linejoin="round"/>
<path d="M8.75033 3.41675V4.91675C8.75033 6.16675 8.21699 6.66675 6.89199 6.66675H3.52533C2.20033 6.66675 1.66699 6.16675 1.66699 4.91675V3.41675C1.66699 2.16675 2.20033 1.66675 3.52533 1.66675H6.89199C8.21699 1.66675 8.75033 2.16675 8.75033 3.41675Z" stroke="#4F4F4F" stroke-width="1.5" stroke-linecap="round" stroke-linejoin="round"/>
</svg>
