<svg width="21" height="20" viewBox="0 0 21 20" fill="none" xmlns="http://www.w3.org/2000/svg">
<defs>
<linearGradient id="paint0_linear_10626_908" x1="2.41895" y1="7.5513" x2="19.0829" y2="7.5513" gradientUnits="userSpaceOnUse">
<stop stop-color="#9741FF"/>
<stop offset="0.489583" stop-color="#645EFD"/>
<stop offset="1" stop-color="#007DB3"/>
</linearGradient>
<linearGradient id="paint1_linear_10626_908" x1="2.7002" y1="14.7727" x2="18.8169" y2="14.7727" gradientUnits="userSpaceOnUse">
<stop stop-color="#9741FF"/>
<stop offset="0.489583" stop-color="#645EFD"/>
<stop offset="1" stop-color="#007DB3"/>
</linearGradient>
</defs>
<path d="M18.3249 5.81676C17.6165 5.03343 16.4332 4.64176 14.7165 4.64176H14.5165V4.60843C14.5165 3.20843 14.5165 1.4751 11.3832 1.4751H10.1165C6.9832 1.4751 6.9832 3.21676 6.9832 4.60843V4.6501H6.7832C5.0582 4.6501 3.8832 5.04176 3.17487 5.8251C2.34987 6.74176 2.37487 7.9751 2.4582 8.81676L2.46654 8.8751L2.52732 9.51338C2.54159 9.66315 2.62234 9.79853 2.74834 9.88076C2.95039 10.0126 3.26013 10.2114 3.44987 10.3168C3.56654 10.3918 3.69154 10.4584 3.81654 10.5251C5.24154 11.3084 6.8082 11.8334 8.39987 12.0918C8.47487 12.8751 8.81653 13.7918 10.6415 13.7918C12.4665 13.7918 12.8249 12.8834 12.8832 12.0751C14.5832 11.8001 16.2249 11.2084 17.7082 10.3418C17.7582 10.3168 17.7915 10.2918 17.8332 10.2668C18.1534 10.0858 18.4852 9.8641 18.7898 9.64542C18.903 9.56415 18.9753 9.43801 18.9907 9.29951L18.9999 9.21676L19.0415 8.8251C19.0499 8.7751 19.0499 8.73343 19.0582 8.6751C19.1249 7.83343 19.1082 6.68343 18.3249 5.81676ZM11.6582 11.5251C11.6582 12.4084 11.6582 12.5418 10.6332 12.5418C9.6082 12.5418 9.6082 12.3834 9.6082 11.5334V10.4834H11.6582V11.5251ZM8.17487 4.64176V4.60843C8.17487 3.19176 8.17487 2.66676 10.1165 2.66676H11.3832C13.3249 2.66676 13.3249 3.2001 13.3249 4.60843V4.6501H8.17487V4.64176Z" fill="url(#paint0_linear_10626_908)"/>
<path d="M18.0099 11.509C18.364 11.3417 18.7712 11.6223 18.7358 12.0123L18.4502 15.1583C18.2752 16.8249 17.5919 18.5249 13.9252 18.5249H7.57519C3.90853 18.5249 3.2252 16.8249 3.0502 15.1666L2.77948 12.1888C2.74444 11.8033 3.14276 11.5233 3.4958 11.6819C4.455 12.113 6.067 12.8064 7.10299 13.0854C7.267 13.1295 7.40014 13.2476 7.47454 13.4003C7.98875 14.4555 9.07794 15.0166 10.6419 15.0166C12.1904 15.0166 13.2929 14.4339 13.809 13.3755C13.8835 13.2227 14.0166 13.1047 14.1807 13.0603C15.2825 12.7618 17.0038 11.9845 18.0099 11.509Z" fill="url(#paint1_linear_10626_908)"/>

</svg>
