<svg width="21" height="20" viewBox="0 0 21 20" fill="none" xmlns="http://www.w3.org/2000/svg">
<path d="M7.41636 18.3333H14.083C17.433 18.3333 18.033 16.9917 18.208 15.3583L18.833 8.69167C19.058 6.65833 18.4747 5 14.9164 5H6.58303C3.02469 5 2.44136 6.65833 2.66636 8.69167L3.29136 15.3583C3.46636 16.9917 4.06636 18.3333 7.41636 18.3333Z" stroke="#4F4F4F" stroke-width="1.5" stroke-miterlimit="10" stroke-linecap="round" stroke-linejoin="round"/>
<path d="M7.41699 5.00008V4.33341C7.41699 2.85841 7.41699 1.66675 10.0837 1.66675H11.417C14.0837 1.66675 14.0837 2.85841 14.0837 4.33341V5.00008" stroke="#4F4F4F" stroke-width="1.5" stroke-miterlimit="10" stroke-linecap="round" stroke-linejoin="round"/>
<path d="M12.4163 10.8333V11.6667C12.4163 11.675 12.4163 11.675 12.4163 11.6833C12.4163 12.5917 12.408 13.3333 10.7497 13.3333C9.09967 13.3333 9.08301 12.6 9.08301 11.6917V10.8333C9.08301 10 9.08301 10 9.91634 10H11.583C12.4163 10 12.4163 10 12.4163 10.8333Z" stroke="#4F4F4F" stroke-width="1.5" stroke-miterlimit="10" stroke-linecap="round" stroke-linejoin="round"/>
<path d="M18.792 9.16675C16.867 10.5667 14.667 11.4001 12.417 11.6834" stroke="#4F4F4F" stroke-width="1.5" stroke-miterlimit="10" stroke-linecap="round" stroke-linejoin="round"/>
<path d="M2.93359 9.3916C4.80859 10.6749 6.92526 11.4499 9.08359 11.6916" stroke="#4F4F4F" stroke-width="1.5" stroke-miterlimit="10" stroke-linecap="round" stroke-linejoin="round"/>
</svg>
