<svg width="21" height="20" viewBox="0 0 21 20" fill="none" xmlns="http://www.w3.org/2000/svg">
<defs>
<linearGradient id="paint0_linear_10626_5818" x1="2.16699" y1="9.90562" x2="18.8337" y2="9.90562" gradientUnits="userSpaceOnUse">
<stop stop-color="#9741FF"/>
<stop offset="0.489583" stop-color="#645EFD"/>
<stop offset="1" stop-color="#007DB3"/>
</linearGradient>
</defs>
<path d="M14.667 2.91675H6.33366C3.83366 2.91675 2.16699 4.16675 2.16699 7.08342V12.9167C2.16699 15.8334 3.83366 17.0834 6.33366 17.0834H14.667C17.167 17.0834 18.8337 15.8334 18.8337 12.9167V7.08342C18.8337 4.16675 17.167 2.91675 14.667 2.91675ZM15.0587 7.99175L12.4503 10.0751C11.9003 10.5167 11.2003 10.7334 10.5003 10.7334C9.80033 10.7334 9.09199 10.5167 8.55033 10.0751L5.94199 7.99175C5.67533 7.77508 5.63366 7.37508 5.84199 7.10841C6.05866 6.84175 6.45033 6.79175 6.71699 7.00841L9.32533 9.09175C9.95866 9.60008 11.0337 9.60008 11.667 9.09175L14.2753 7.00841C14.542 6.79175 14.942 6.83341 15.1503 7.10841C15.367 7.37508 15.3253 7.77508 15.0587 7.99175Z" fill="url(#paint0_linear_10626_5818)"/>

</svg>
