<svg width="20" height="20" viewBox="0 0 20 20" fill="none" xmlns="http://www.w3.org/2000/svg">
<defs>
<linearGradient id="paint0_linear_11827_7423" x1="1.66602" y1="9.89017" x2="18.3327" y2="9.89017" gradientUnits="userSpaceOnUse">
<stop stop-color="#9741FF"/>
<stop offset="0.489583" stop-color="#645EFD"/>
<stop offset="1" stop-color="#007DB3"/>
</linearGradient>
</defs>

<path d="M9.99935 1.66797C5.39935 1.66797 1.66602 5.4013 1.66602 10.0013C1.66602 14.6013 5.39935 18.3346 9.99935 18.3346C14.5993 18.3346 18.3327 14.6013 18.3327 10.0013C18.3327 5.4013 14.5993 1.66797 9.99935 1.66797ZM5.49935 9.35964C5.64102 8.36797 6.08268 7.4763 6.77435 6.7763C8.44102 5.11797 11.066 5.0263 12.8493 6.4763V5.68464C12.8493 5.34297 13.1327 5.05964 13.4743 5.05964C13.816 5.05964 14.0993 5.34297 14.0993 5.68464V7.90964C14.0993 8.2513 13.816 8.53464 13.4743 8.53464H11.2493C10.9077 8.53464 10.6243 8.2513 10.6243 7.90964C10.6243 7.56797 10.9077 7.28464 11.2493 7.28464H11.8743C10.5827 6.38464 8.79935 6.50964 7.64935 7.65964C7.14935 8.15964 6.83268 8.80964 6.72435 9.53464C6.68268 9.84297 6.41602 10.068 6.10768 10.068C6.07435 10.068 6.04935 10.068 6.01602 10.0596C5.69102 10.018 5.44935 9.7013 5.49935 9.35964ZM13.2243 13.2263C12.3327 14.118 11.166 14.5596 9.99935 14.5596C8.98268 14.5596 7.97435 14.2013 7.14102 13.5263V14.3096C7.14102 14.6513 6.85768 14.9346 6.51602 14.9346C6.17435 14.9346 5.89102 14.6513 5.89102 14.3096V12.0846C5.89102 11.743 6.17435 11.4596 6.51602 11.4596H8.74102C9.08268 11.4596 9.36602 11.743 9.36602 12.0846C9.36602 12.4263 9.08268 12.7096 8.74102 12.7096H8.11602C9.40768 13.6096 11.191 13.4846 12.341 12.3346C12.841 11.8346 13.1577 11.1846 13.266 10.4596C13.316 10.118 13.6243 9.8763 13.9743 9.9263C14.316 9.9763 14.5493 10.293 14.5077 10.6346C14.3577 11.643 13.916 12.5346 13.2243 13.2263Z" fill="url(#paint0_linear_11827_7423)"/>

</svg>
