<svg width="80" height="80" viewBox="0 0 80 80" fill="none" xmlns="http://www.w3.org/2000/svg">
<defs>
<linearGradient id="paint0_linear_10625_1025" x1="6.66602" y1="39.5558" x2="73.3327" y2="39.5558" gradientUnits="userSpaceOnUse">
<stop stop-color="#9741FF"/>
<stop offset="0.489583" stop-color="#645EFD"/>
<stop offset="1" stop-color="#007DB3"/>
</linearGradient>
<linearGradient id="paint1_linear_10625_1025" x1="23.3418" y1="39.8285" x2="56.6585" y2="39.8285" gradientUnits="userSpaceOnUse">
<stop stop-color="#9741FF"/>
<stop offset="0.489583" stop-color="#645EFD"/>
<stop offset="1" stop-color="#007DB3"/>
</linearGradient>
</defs>
<path opacity="0.4" d="M39.9993 73.3337C58.4088 73.3337 73.3327 58.4098 73.3327 40.0003C73.3327 21.5908 58.4088 6.66699 39.9993 6.66699C21.5899 6.66699 6.66602 21.5908 6.66602 40.0003C6.66602 58.4098 21.5899 73.3337 39.9993 73.3337Z" fill="url(#paint0_linear_10625_1025)"/>
<path d="M35.2668 51.9337C34.6001 51.9337 33.9668 51.667 33.5001 51.2003L24.0668 41.767C23.1001 40.8003 23.1001 39.2003 24.0668 38.2337C25.0335 37.267 26.6335 37.267 27.6001 38.2337L35.2668 45.9003L52.4001 28.767C53.3668 27.8003 54.9668 27.8003 55.9335 28.767C56.9001 29.7337 56.9001 31.3337 55.9335 32.3003L37.0335 51.2003C36.5668 51.667 35.9335 51.9337 35.2668 51.9337Z" fill="url(#paint1_linear_10625_1025)"/>

</svg>
