<svg width="40" height="40" viewBox="0 0 40 40" fill="none" xmlns="http://www.w3.org/2000/svg">
<path d="M19.0993 22.8823C21.6859 22.8823 23.7827 20.7855 23.7827 18.199C23.7827 15.6124 21.6859 13.5156 19.0993 13.5156C16.5128 13.5156 14.416 15.6124 14.416 18.199C14.416 20.7855 16.5128 22.8823 19.0993 22.8823Z" stroke="#131313" stroke-width="1.5" stroke-linecap="round" stroke-linejoin="round"/>
<path d="M27.7492 33.6673C27.7492 29.7839 23.8825 26.6172 19.0992 26.6172C14.3159 26.6172 10.4492 29.7673 10.4492 33.6673" stroke="#131313" stroke-width="1.5" stroke-linecap="round" stroke-linejoin="round"/>
<path d="M35.0007 20.8333C35.0007 29.5833 27.9173 36.6667 19.1673 36.6667C10.4173 36.6667 3.33398 29.5833 3.33398 20.8333C3.33398 12.0833 10.4173 5 19.1673 5C21.3507 5 23.434 5.43332 25.334 6.23332C25.1173 6.89998 25.0007 7.6 25.0007 8.33333C25.0007 9.58333 25.3507 10.7667 25.9673 11.7667C26.3007 12.3333 26.734 12.85 27.234 13.2833C28.4007 14.35 29.9507 15 31.6673 15C32.4007 15 33.1007 14.8833 33.7507 14.65C34.5507 16.55 35.0007 18.65 35.0007 20.8333Z" stroke="#131313" stroke-width="1.5" stroke-linecap="round" stroke-linejoin="round"/>
<path d="M38.3333 8.33464C38.3333 8.86797 38.2667 9.38462 38.1333 9.88462C37.9833 10.5513 37.7167 11.2013 37.3667 11.768C36.5667 13.118 35.2833 14.1679 33.75 14.6513C33.1 14.8846 32.4 15.0013 31.6667 15.0013C29.95 15.0013 28.4 14.3513 27.2333 13.2846C26.7333 12.8513 26.3 12.3346 25.9667 11.768C25.35 10.768 25 9.58464 25 8.33464C25 7.6013 25.1167 6.90129 25.3333 6.23462C25.65 5.26795 26.1833 4.40134 26.8833 3.68467C28.1 2.43467 29.8 1.66797 31.6667 1.66797C33.6333 1.66797 35.4167 2.518 36.6167 3.88466C37.6833 5.068 38.3333 6.63464 38.3333 8.33464Z" stroke="#131313" stroke-width="1.5" stroke-miterlimit="10" stroke-linecap="round" stroke-linejoin="round"/>
<path d="M34.1503 8.30078H29.1836" stroke="#131313" stroke-width="1.5" stroke-miterlimit="10" stroke-linecap="round" stroke-linejoin="round"/>
<path d="M31.666 5.86719V10.8505" stroke="#131313" stroke-width="1.5" stroke-miterlimit="10" stroke-linecap="round" stroke-linejoin="round"/>
</svg>
