<svg width="21" height="20" viewBox="0 0 21 20" fill="none" xmlns="http://www.w3.org/2000/svg">
<rect x="0.5" width="20" height="20" rx="10" fill="#EA4335"/>
<path d="M3.83816 10.0085C3.70492 6.50029 6.77778 3.2583 10.2895 3.21624C12.0793 3.06358 13.8206 3.75863 15.1751 4.89224C14.6195 5.50316 14.0542 6.10703 13.4503 6.67236C12.2579 5.9479 10.8222 5.3958 9.42855 5.88613C7.18075 6.52617 5.81948 9.18018 6.6513 11.3792C7.34017 13.6758 10.1336 14.9362 12.3229 13.9714C13.4565 13.5655 14.2039 12.5195 14.5318 11.3956C13.2326 11.3697 11.9331 11.3859 10.6339 11.35C10.6307 10.577 10.6275 9.80699 10.6307 9.03399C12.7973 9.03076 14.9672 9.02429 17.137 9.0437C17.2703 10.9377 16.9908 12.9646 15.7596 14.4847C14.0736 16.6545 10.9587 17.2913 8.42466 16.4401C5.73535 15.5568 3.77963 12.8475 3.83816 10.0085Z" fill="white"/>
</svg>
