<svg width="30" height="30" viewBox="0 0 30 30" fill="none" xmlns="http://www.w3.org/2000/svg">
<path opacity="0.4" d="M14.9629 27.5C21.8665 27.5 27.4629 21.9036 27.4629 15C27.4629 8.09644 21.8665 2.5 14.9629 2.5C8.05933 2.5 2.46289 8.09644 2.46289 15C2.46289 21.9036 8.05933 27.5 14.9629 27.5Z" fill="black"/>
<path d="M18.7117 12.7859L15.0867 10.6984C14.1867 10.1734 13.0992 10.1734 12.1992 10.6984C11.2992 11.2234 10.7617 12.1484 10.7617 13.1984V17.3859C10.7617 18.4234 11.2992 19.3609 12.1992 19.8859C12.6492 20.1484 13.1492 20.2734 13.6367 20.2734C14.1367 20.2734 14.6242 20.1484 15.0742 19.8859L18.6992 17.7984C19.5992 17.2734 20.1367 16.3484 20.1367 15.2984C20.1617 14.2484 19.6242 13.3109 18.7117 12.7859Z" fill="white"/>
</svg>
