<svg width="20" height="20" viewBox="0 0 20 20" fill="none" xmlns="http://www.w3.org/2000/svg">
<rect width="20" height="20" rx="10" fill="#1DA1F2"/>
<path d="M14.9004 7.83887C14.9004 7.94824 14.9004 8.05762 14.9004 8.15137C14.9004 11.3857 12.4316 15.1201 7.93164 15.1201C6.54102 15.1201 5.25977 14.7139 4.16602 14.0264C4.35352 14.042 4.55664 14.0576 4.74414 14.0576C5.88477 14.0576 6.94727 13.667 7.79102 13.0107C6.71289 12.9951 5.80664 12.2764 5.50977 11.3076C5.66602 11.3389 5.80664 11.3545 5.97852 11.3545C6.19727 11.3545 6.41602 11.3232 6.61914 11.2607C5.49414 11.042 4.65039 10.0576 4.65039 8.87012C4.65039 8.85449 4.65039 8.85449 4.65039 8.83887C4.97852 9.02637 5.35352 9.13574 5.75977 9.15137C5.10352 8.71387 4.66602 7.96387 4.66602 7.10449C4.66602 6.65137 4.79102 6.22949 4.99414 5.87012C6.19727 7.35449 8.00977 8.32324 10.041 8.43262C9.99414 8.26074 9.97852 8.05762 9.97852 7.87012C9.97852 6.51074 11.0723 5.41699 12.4316 5.41699C13.1348 5.41699 13.7754 5.71387 14.2129 6.18262C14.7754 6.07324 15.291 5.87012 15.7754 5.58887C15.5879 6.16699 15.1973 6.63574 14.6973 6.94824C15.1973 6.88574 15.666 6.76074 16.1035 6.55762C15.791 7.05762 15.3848 7.49512 14.9004 7.83887Z" fill="white"/>
</svg>
