<svg width="20" height="20" viewBox="0 0 20 20" fill="none" xmlns="http://www.w3.org/2000/svg">
<path d="M17.6257 5.14232C17.284 4.95898 16.5673 4.76732 15.5923 5.45065L14.3673 6.31732C14.2757 3.72565 13.1507 2.70898 10.4173 2.70898H5.41732C2.56732 2.70898 1.45898 3.81732 1.45898 6.66732V13.334C1.45898 15.2507 2.50065 17.2923 5.41732 17.2923H10.4173C13.1507 17.2923 14.2757 16.2757 14.3673 13.684L15.5923 14.5506C16.109 14.9173 16.559 15.034 16.9173 15.034C17.2257 15.034 17.4673 14.9423 17.6257 14.859C17.9673 14.684 18.5423 14.209 18.5423 13.0173V6.98398C18.5423 5.79232 17.9673 5.31732 17.6257 5.14232ZM9.16732 9.48398C8.30898 9.48398 7.60065 8.78398 7.60065 7.91732C7.60065 7.05065 8.30898 6.35065 9.16732 6.35065C10.0257 6.35065 10.734 7.05065 10.734 7.91732C10.734 8.78398 10.0257 9.48398 9.16732 9.48398Z" fill="#131313"/>
</svg>
